<svg width="21" height="20" viewBox="0 0 21 20" fill="none" xmlns="http://www.w3.org/2000/svg">
<path fill-rule="evenodd" clip-rule="evenodd" d="M13.792 1.875L18.167 1.875C18.3328 1.875 18.4917 1.94085 18.6089 2.05806C18.7261 2.17527 18.792 2.33424 18.792 2.5V6.875C18.792 7.22018 18.5122 7.5 18.167 7.5C17.8218 7.5 17.542 7.22018 17.542 6.875V4.00888L7.35893 14.1919C7.11486 14.436 6.71913 14.436 6.47505 14.1919C6.23097 13.9479 6.23097 13.5521 6.47505 13.3081L16.6581 3.125L13.792 3.125C13.4468 3.125 13.167 2.84518 13.167 2.5C13.167 2.15482 13.4468 1.875 13.792 1.875ZM5.04199 5.625C4.35164 5.625 3.79199 6.18464 3.79199 6.875V15.625C3.79199 16.3154 4.35164 16.875 5.04199 16.875H13.792C14.4823 16.875 15.042 16.3154 15.042 15.625V8.75C15.042 8.40482 15.3218 8.125 15.667 8.125C16.0122 8.125 16.292 8.40482 16.292 8.75V15.625C16.292 17.0057 15.1727 18.125 13.792 18.125H5.04199C3.66128 18.125 2.54199 17.0057 2.54199 15.625V6.875C2.54199 5.49429 3.66128 4.375 5.04199 4.375H11.917C12.2622 4.375 12.542 4.65482 12.542 5C12.542 5.34518 12.2622 5.625 11.917 5.625H5.04199Z" fill="#1F2937"/>
</svg>
