<svg width="20" height="20" viewBox="0 0 20 20" fill="none" xmlns="http://www.w3.org/2000/svg">
<path d="M12.3334 13.8889H16.2223L15.1296 12.7962C14.8332 12.4998 14.6667 12.0979 14.6667 11.6788V9.22223C14.6667 7.19033 13.3681 5.46174 11.5556 4.8211V4.55556C11.5556 3.69645 10.8592 3 10.0001 3C9.14094 3 8.4445 3.69645 8.4445 4.55556V4.8211C6.63198 5.46174 5.33339 7.19033 5.33339 9.22223V11.6788C5.33339 12.0979 5.1669 12.4998 4.87056 12.7962L3.77783 13.8889H7.66672M12.3334 13.8889V14.6667C12.3334 15.9553 11.2887 17 10.0001 17C8.71139 17 7.66672 15.9553 7.66672 14.6667V13.8889M12.3334 13.8889H7.66672" stroke="#404040" stroke-width="1.5" stroke-linecap="round" stroke-linejoin="round"/>
</svg>
