<svg width="32" height="32" viewBox="0 0 32 32" fill="none" xmlns="http://www.w3.org/2000/svg">
<path d="M18.3334 19.8889H22.2223L21.1296 18.7962C20.8332 18.4998 20.6667 18.0979 20.6667 17.6788V15.2222C20.6667 13.1903 19.3681 11.4617 17.5556 10.8211V10.5556C17.5556 9.69645 16.8592 9 16.0001 9C15.1409 9 14.4445 9.69645 14.4445 10.5556V10.8211C12.632 11.4617 11.3334 13.1903 11.3334 15.2222V17.6788C11.3334 18.0979 11.1669 18.4998 10.8706 18.7962L9.77783 19.8889H13.6667M18.3334 19.8889V20.6667C18.3334 21.9553 17.2887 23 16.0001 23C14.7114 23 13.6667 21.9553 13.6667 20.6667V19.8889M18.3334 19.8889H13.6667" stroke="#47343A" stroke-width="1.5" stroke-linecap="round" stroke-linejoin="round"/>
</svg>
