<svg width="20" height="20" viewBox="0 0 20 20" fill="none" xmlns="http://www.w3.org/2000/svg">
<path d="M3.04272 9.22222H4.55556C5.41467 9.22222 6.11111 9.91867 6.11111 10.7778V11.5556C6.11111 12.4147 6.80756 13.1111 7.66667 13.1111C8.52578 13.1111 9.22222 13.8076 9.22222 14.6667V16.9573M6.88889 3.72763V4.94444C6.88889 6.01833 7.75945 6.88889 8.83333 6.88889H9.22222C10.0813 6.88889 10.7778 7.58533 10.7778 8.44444C10.7778 9.30355 11.4742 10 12.3333 10C13.1924 10 13.8889 9.30355 13.8889 8.44444C13.8889 7.58533 14.5853 6.88889 15.4444 6.88889L16.2724 6.88889M12.3333 16.6017V14.6667C12.3333 13.8076 13.0298 13.1111 13.8889 13.1111H16.2724M17 10C17 13.866 13.866 17 10 17C6.13401 17 3 13.866 3 10C3 6.13401 6.13401 3 10 3C13.866 3 17 6.13401 17 10Z" stroke="#B67B5D" stroke-width="1.5" stroke-linecap="round" stroke-linejoin="round"/>
</svg>
