<svg width="97" height="18" viewBox="0 0 97 18" fill="none" xmlns="http://www.w3.org/2000/svg">
<g clip-path="url(#clip0_5815_5670)">
<path d="M14.8929 6.42V5.7C14.8929 5.5 14.6229 5.21 14.4129 5.2L6.66292 5.24C6.41292 5.26 6.19292 5.47 6.16292 5.72C6.24292 7.19 6.09292 8.74 6.18292 10.2C6.29292 11.8 7.74292 13.26 9.35292 13.36C10.0529 13.4 11.5429 13.42 12.2029 13.27C13.1129 13.07 13.9129 12.48 14.3929 11.69C14.5429 11.44 14.6629 11.18 14.7629 10.91C14.7929 10.89 15.2329 11 15.3229 11C16.4129 11.07 17.4329 10.36 17.7229 9.31C18.2029 7.56 16.6429 5.97 14.8929 6.42ZM14.9229 9.69V7.67C15.5029 7.3 16.2729 7.58 16.5429 8.2C16.9829 9.23 15.9029 10.2 14.9229 9.69Z" fill="#47343A"/>
<path d="M0.00292969 10.06V7.92C0.67293 7.92 1.15293 7.72 1.43293 7.35C1.70293 6.99 1.85293 6.57 1.90293 6.09C1.94293 5.63 1.95293 5.12 1.95293 4.57C1.95293 3.58 2.00293 2.86 2.10293 2.39C2.19293 1.94 2.38293 1.57 2.66293 1.28C2.94293 0.989999 3.30293 0.779999 3.76293 0.639999C4.22293 0.499999 4.84293 0.439999 5.62293 0.439999H6.09293V2.57C5.30293 2.57 4.80293 2.65 4.59293 2.81C4.38293 2.97 4.27293 3.32 4.27293 3.86C4.27293 5.61 4.16293 6.8 3.94293 7.42C3.72293 8.04 3.27293 8.57 2.59293 9.01C3.14293 9.31 3.55293 9.75 3.84293 10.34C4.12293 10.93 4.26293 12.2 4.26293 14.14C4.26293 14.56 4.32293 14.86 4.45293 15.02C4.57293 15.19 4.74293 15.3 4.95293 15.35C5.16293 15.4 5.54293 15.43 6.08293 15.43V17.57H5.62293C4.59293 17.57 3.81293 17.44 3.29293 17.17C2.76293 16.91 2.41293 16.52 2.23293 16.01C2.05293 15.51 1.95293 14.65 1.95293 13.42C1.95293 12.49 1.90293 11.81 1.80293 11.38C1.71293 10.97 1.52293 10.66 1.24293 10.44C0.96293 10.23 0.55293 10.1 0.00292969 10.07V10.06Z" fill="#47343A"/>
<path d="M21.153 10.43C20.873 10.64 20.683 10.96 20.593 11.37C20.493 11.8 20.443 12.48 20.443 13.41C20.443 14.64 20.353 15.5 20.163 16C19.983 16.51 19.633 16.9 19.103 17.16C18.573 17.43 17.793 17.56 16.773 17.56H16.313V15.42C16.863 15.42 17.233 15.39 17.443 15.34C17.653 15.29 17.823 15.18 17.943 15.01C18.063 14.84 18.133 14.55 18.133 14.13C18.133 12.19 18.273 10.92 18.553 10.33C18.843 9.74 19.253 9.3 19.803 9C19.123 8.57 18.673 8.04 18.453 7.41C18.233 6.79 18.123 5.61 18.123 3.85C18.123 3.31 18.013 2.96 17.803 2.8C17.593 2.64 17.093 2.56 16.303 2.56V0.43H16.773C17.553 0.43 18.173 0.5 18.633 0.63C19.083 0.77 19.453 0.99 19.733 1.27C20.013 1.57 20.203 1.94 20.293 2.38C20.393 2.85 20.443 3.58 20.443 4.56C20.443 5.11 20.463 5.62 20.493 6.08C20.543 6.56 20.693 6.98 20.963 7.34C21.243 7.71 21.713 7.9 22.393 7.91V10.05C21.843 10.08 21.433 10.2 21.153 10.42V10.43Z" fill="#47343A"/>
<path d="M27.003 8.12C27.363 6.14 28.993 4.11 31.083 4.22C32.803 4.3 33.843 5.93 33.653 7.32C33.563 8.03 32.413 8.57 32.053 7.87C31.553 6.88 30.833 6.4 30.063 7.78C29.623 8.6 29.723 9.87 30.143 10.51C30.693 11.39 32.043 11.39 32.593 10.51C32.753 10.27 32.903 10.06 33.193 9.98C33.833 9.84 34.333 10.39 34.153 11.03C33.903 11.91 33.373 12.57 32.533 12.97C30.383 13.97 27.623 12.89 27.093 10.57C26.903 9.71 26.873 8.89 27.013 8.12H27.003Z" fill="#47343A"/>
<path d="M42.703 6.68C43.593 9.2 42.463 13.48 39.113 13.48C37.733 13.5 36.573 12.63 35.913 11.54C34.953 10.03 34.993 8.01 35.773 6.48C37.173 3.67 41.483 3.44 42.703 6.68ZM40.613 8.62C40.423 5.94 38.133 6.35 37.823 8.59C37.223 11.85 40.833 11.73 40.613 8.62Z" fill="#47343A"/>
<path d="M49.323 2.51C49.353 2.21 49.523 1.9 49.683 1.63C50.043 1.14 50.623 0.94 51.173 1.11C51.723 1.28 52.093 1.74 52.133 2.35C52.153 2.59 52.113 2.8 52.103 3.04C51.993 6.08 51.713 10.27 52.023 12.92C52.083 13.41 51.943 13.83 51.553 14.05C51.143 14.25 50.643 14.16 50.313 13.8C50.003 13.46 49.823 13.03 49.683 12.59C49.623 12.4 49.573 12.21 49.513 12.01C47.133 14.05 44.043 12.32 44.043 9.42C44.073 6.8 46.673 5.52 48.993 6.17C49.053 4.93 49.133 3.71 49.323 2.5V2.51ZM46.593 10.05C46.893 11.63 49.113 10.77 49.243 9.81C49.273 9.57 49.193 9.31 48.993 8.98C48.883 8.82 48.753 8.68 48.583 8.62C48.143 8.45 47.673 8.4 47.263 8.56C46.653 8.78 46.483 9.47 46.593 10.05Z" fill="#47343A"/>
<path d="M58.1629 10.45C58.5829 10.29 58.9029 10.29 59.1629 10.56C59.4429 10.81 59.5429 11.23 59.3329 11.59C58.8829 12.34 58.1729 12.7 57.3729 12.95C56.2429 13.28 55.1129 13.14 54.2829 12.28C52.6329 10.57 52.4829 7.51 53.9429 5.66C55.3029 3.83 58.5529 3.98 59.3329 6.21C59.7429 7.34 59.4929 8.69 58.5929 9.49C57.9629 10.07 57.0829 10.27 56.3029 10.32C56.7429 11.12 57.5429 10.66 58.1529 10.45H58.1629ZM57.7829 6.91C57.4829 6.36 57.1229 6.3 56.6729 6.72C56.4229 6.97 56.0329 7.6 55.9029 8.13C55.7729 8.65 55.9529 8.98 56.3729 8.98C57.6729 9 58.3329 7.93 57.7829 6.91Z" fill="#47343A"/>
<path d="M63.523 13.07C63.523 13.26 63.523 13.45 63.493 13.62C63.403 14.06 63.043 14.4 62.603 14.48C62.193 14.54 61.743 14.34 61.523 13.95C61.393 13.76 61.333 13.54 61.253 13.32C60.233 10.11 60.043 5.59 60.863 2.38C60.943 2.1 61.023 1.82 61.143 1.56C61.313 1.29 61.523 1.03 61.753 0.840002C62.103 0.590002 62.493 0.570002 62.863 0.810002C63.243 1.03 63.383 1.37 63.383 1.8C63.353 3.12 63.323 4.43 63.323 5.75C63.303 5.8 63.323 5.84 63.343 5.92C63.643 5.86 63.953 5.78 64.253 5.73C65.323 5.57 66.263 5.81 67.123 6.47C67.623 6.88 67.923 7.41 67.973 8.08C68.113 9.49 67.553 10.6 66.393 11.44C65.573 12.02 64.633 12.37 63.543 12.44C63.543 12.68 63.563 12.88 63.543 13.07H63.523ZM64.883 9C65.653 8.31 64.613 7.18 63.553 7.78C63.413 7.86 63.313 7.97 63.353 8.14C63.383 8.63 63.403 9.11 63.443 9.61C63.993 9.52 64.473 9.34 64.883 9Z" fill="#47343A"/>
<path d="M73.873 5.23C74.183 5.2 74.513 5.23 74.833 5.31C75.273 5.42 75.583 5.83 75.603 6.28C75.653 6.78 75.433 7.13 74.963 7.35C74.653 7.49 74.353 7.59 74.033 7.73C73.613 7.95 73.173 8.15 72.763 8.44C72.023 8.99 71.663 9.76 71.773 10.73C71.803 11.11 71.853 11.47 71.863 11.87C71.913 12.61 71.523 13.17 70.923 13.31C70.363 13.44 69.793 13.03 69.603 12.32C69.003 10.08 68.963 7.95 68.963 5.88C68.963 5.6 68.993 5.33 69.053 5.06C69.163 4.54 69.523 4.18 69.983 4.17C70.393 4.14 70.803 4.44 70.953 4.95C71.043 5.23 71.113 5.58 71.173 5.89C71.203 6 71.233 6.13 71.263 6.31C72.083 5.6 72.953 5.32 73.863 5.23H73.873Z" fill="#47343A"/>
<path d="M81.853 10.45C82.273 10.29 82.593 10.29 82.853 10.56C83.133 10.81 83.233 11.23 83.023 11.59C82.573 12.34 81.863 12.7 81.063 12.95C79.933 13.28 78.803 13.14 77.973 12.28C76.323 10.57 76.173 7.51 77.623 5.66C78.983 3.83 82.233 3.98 83.013 6.21C83.423 7.34 83.173 8.69 82.273 9.49C81.643 10.07 80.763 10.27 79.983 10.32C80.423 11.12 81.223 10.66 81.833 10.45H81.853ZM81.473 6.91C81.173 6.36 80.813 6.3 80.363 6.72C80.113 6.97 79.723 7.6 79.593 8.13C79.463 8.65 79.643 8.98 80.063 8.98C81.363 9 82.023 7.93 81.473 6.91Z" fill="#47343A"/>
<path d="M89.443 12.49C88.333 13.82 86.713 13.87 85.523 12.6C85.003 12.05 84.673 11.41 84.503 10.7C84.223 9.41 84.223 8.14 84.553 6.87C84.693 6.32 85.073 5.58 85.543 5.44C86.293 5.13 86.943 5.63 86.903 6.29C86.873 6.98 86.873 7.69 86.883 8.34C86.963 11.13 87.623 11.43 88.703 8.97C88.763 8.83 88.793 8.62 88.863 8.45C89.053 7.98 89.383 7.68 89.913 7.63C90.463 7.6 90.883 7.83 91.133 8.27C92.673 11.99 94.493 11.09 93.953 8.13C93.753 7.03 93.283 5.92 92.683 4.49C92.483 4.13 92.553 3.75 92.853 3.5C93.163 3.23 93.603 3.2 93.963 3.48C94.203 3.64 94.413 3.87 94.593 4.11C96.053 6.4 97.303 9.33 95.883 11.67C95.693 12.05 95.363 12.41 95.023 12.7C94.133 13.45 92.983 13.55 91.903 13.06C91.303 12.76 90.873 12.35 90.463 11.85C90.353 11.74 90.273 11.6 90.113 11.46C89.863 11.81 89.673 12.15 89.443 12.46V12.49Z" fill="#47343A"/>
</g>
<defs>
<clipPath id="clip0_5815_5670">
<rect width="96.51" height="17.14" fill="white" transform="translate(0 0.43)"/>
</clipPath>
</defs>
</svg>
