<svg width="160" height="32" viewBox="0 0 160 32" fill="none" xmlns="http://www.w3.org/2000/svg">
<path d="M31.5165 15.8835C31.5165 22.4471 26.196 27.767 19.6314 27.767H11.8857V4H19.6314C26.196 4 31.5165 9.32181 31.5165 15.8835Z" fill="url(#paint0_linear_5777_1226)"/>
<path d="M16.569 24.5604C16.676 25.6656 17.0227 26.6876 17.5535 27.5848C17.5872 27.6462 17.6248 27.7056 17.6625 27.767H11.8857V16.543H23.1712C19.1323 16.9352 16.1768 20.524 16.569 24.5604Z" fill="#6400E6"/>
<path d="M23.7701 15.8865C23.7701 16.2285 23.5099 16.5124 23.1695 16.5466C19.4005 16.9247 16.1508 19.0637 14.2541 22.1284C13.3319 23.6207 12.7289 25.3338 12.5457 27.169C12.5117 27.5092 12.2279 27.7691 11.886 27.7691C11.5439 27.7691 11.2602 27.509 11.2261 27.1687C10.6651 21.5651 6.2066 17.1073 0.600515 16.5464C0.260185 16.5124 0 16.2286 0 15.8866C0 15.5446 0.260201 15.2608 0.600544 15.2268C6.20842 14.666 10.6653 10.2097 11.2262 4.60256C11.2602 4.26227 11.544 4.0021 11.886 4.0021C12.228 4.0021 12.5119 4.26226 12.5459 4.60255C13.1068 10.2079 17.5636 14.6658 23.1696 15.2268C23.5099 15.2608 23.7701 15.5445 23.7701 15.8865Z" fill="url(#paint1_linear_5777_1226)"/>
<path d="M46.9432 22.1989C50.4886 22.1989 52.5909 20.0057 52.5909 16.3693C52.5909 12.7443 50.4886 10.5625 47.0227 10.5625H43V22.1989H46.9432ZM45.108 20.375V12.3864H46.9034C49.267 12.3864 50.5 13.7045 50.5 16.3693C50.5 19.0455 49.267 20.375 46.8409 20.375H45.108Z" fill="#47343A"/>
<path d="M58.2065 22.3693C60.2406 22.3693 61.6383 21.375 62.0019 19.858L60.0815 19.642C59.8031 20.3807 59.1213 20.767 58.2349 20.767C56.9053 20.767 56.0247 19.892 56.0076 18.3977H62.0872V17.767C62.0872 14.7045 60.2463 13.358 58.0985 13.358C55.5985 13.358 53.9678 15.1932 53.9678 17.8864C53.9678 20.625 55.5758 22.3693 58.2065 22.3693ZM56.0133 17.0114C56.0758 15.8977 56.8997 14.9602 58.1269 14.9602C59.3088 14.9602 60.1042 15.8239 60.1156 17.0114H56.0133Z" fill="#47343A"/>
<path d="M70.5649 15.7784C70.2809 14.3011 69.099 13.358 67.0536 13.358C64.9513 13.358 63.5195 14.392 63.5252 16.0057C63.5195 17.2784 64.3036 18.1193 65.9797 18.4659L67.4684 18.7784C68.2695 18.9545 68.6445 19.2784 68.6445 19.7727C68.6445 20.3693 67.9968 20.8182 67.0195 20.8182C66.0763 20.8182 65.4627 20.4091 65.2865 19.625L63.2809 19.8182C63.5365 21.4205 64.8831 22.3693 67.0252 22.3693C69.207 22.3693 70.7468 21.2386 70.7524 19.5852C70.7468 18.3409 69.9456 17.5795 68.2979 17.2216L66.8093 16.9034C65.9229 16.7045 65.5706 16.3977 65.5763 15.892C65.5706 15.3011 66.224 14.892 67.082 14.892C68.0309 14.892 68.5309 15.4091 68.6899 15.983L70.5649 15.7784Z" fill="#47343A"/>
<path d="M72.2885 22.1989H74.3453V13.4716H72.2885V22.1989ZM73.3226 12.233C73.976 12.233 74.5101 11.733 74.5101 11.1193C74.5101 10.5 73.976 10 73.3226 10C72.6635 10 72.1294 10.5 72.1294 11.1193C72.1294 11.733 72.6635 12.233 73.3226 12.233Z" fill="#47343A"/>
<path d="M80.0958 25.6534C82.4538 25.6534 84.1924 24.5739 84.1924 22.3409V13.4716H82.164V14.9148H82.0503C81.7378 14.2841 81.0844 13.358 79.5447 13.358C77.5276 13.358 75.9424 14.9375 75.9424 17.8068C75.9424 20.6534 77.5276 22.0739 79.539 22.0739C81.0333 22.0739 81.7322 21.2727 82.0503 20.6307H82.1526V22.2841C82.1526 23.5682 81.3003 24.0966 80.1299 24.0966C78.8913 24.0966 78.3458 23.5114 78.0958 23L76.2435 23.4489C76.6185 24.6705 77.8742 25.6534 80.0958 25.6534ZM80.1128 20.4602C78.7549 20.4602 78.039 19.4034 78.039 17.7955C78.039 16.2102 78.7435 15.0455 80.1128 15.0455C81.4367 15.0455 82.164 16.142 82.164 17.7955C82.164 19.4602 81.4253 20.4602 80.1128 20.4602Z" fill="#47343A"/>
<path d="M88.1972 17.0852C88.1972 15.8239 88.9585 15.0966 90.0438 15.0966C91.1063 15.0966 91.7426 15.7955 91.7426 16.9602V22.1989H93.7994V16.642C93.8051 14.5511 92.6119 13.358 90.8108 13.358C89.504 13.358 88.6063 13.983 88.2085 14.9545H88.1063V13.4716H86.1403V22.1989H88.1972V17.0852Z" fill="#47343A"/>
<path d="M99.594 22.3693C101.628 22.3693 103.026 21.375 103.389 19.858L101.469 19.642C101.191 20.3807 100.509 20.767 99.6224 20.767C98.2928 20.767 97.4122 19.892 97.3951 18.3977H103.475V17.767C103.475 14.7045 101.634 13.358 99.486 13.358C96.986 13.358 95.3553 15.1932 95.3553 17.8864C95.3553 20.625 96.9633 22.3693 99.594 22.3693ZM97.4008 17.0114C97.4633 15.8977 98.2872 14.9602 99.5144 14.9602C100.696 14.9602 101.492 15.8239 101.503 17.0114H97.4008Z" fill="#47343A"/>
<path d="M105.055 22.1989H107.112V17.0682C107.112 15.9602 107.947 15.1761 109.077 15.1761C109.424 15.1761 109.856 15.2386 110.032 15.2955V13.4034C109.844 13.3693 109.521 13.3466 109.293 13.3466C108.293 13.3466 107.458 13.9148 107.14 14.9261H107.049V13.4716H105.055V22.1989Z" fill="#47343A"/>
<path d="M118.136 15.7784C117.852 14.3011 116.67 13.358 114.625 13.358C112.523 13.358 111.091 14.392 111.096 16.0057C111.091 17.2784 111.875 18.1193 113.551 18.4659L115.04 18.7784C115.841 18.9545 116.216 19.2784 116.216 19.7727C116.216 20.3693 115.568 20.8182 114.591 20.8182C113.648 20.8182 113.034 20.4091 112.858 19.625L110.852 19.8182C111.108 21.4205 112.454 22.3693 114.596 22.3693C116.778 22.3693 118.318 21.2386 118.324 19.5852C118.318 18.3409 117.517 17.5795 115.869 17.2216L114.381 16.9034C113.494 16.7045 113.142 16.3977 113.148 15.892C113.142 15.3011 113.795 14.892 114.653 14.892C115.602 14.892 116.102 15.4091 116.261 15.983L118.136 15.7784Z" fill="#47343A"/>
<path d="M121.917 17.0852C121.917 15.8239 122.701 15.0966 123.803 15.0966C124.882 15.0966 125.519 15.7841 125.519 16.9602V22.1989H127.576V16.642C127.576 14.5341 126.382 13.358 124.57 13.358C123.229 13.358 122.377 13.9659 121.973 14.9545H121.871V10.5625H119.86V22.1989H121.917V17.0852Z" fill="#47343A"/>
<path d="M129.512 22.1989H131.569V13.4716H129.512V22.1989ZM130.546 12.233C131.2 12.233 131.734 11.733 131.734 11.1193C131.734 10.5 131.2 10 130.546 10C129.887 10 129.353 10.5 129.353 11.1193C129.353 11.733 129.887 12.233 130.546 12.233Z" fill="#47343A"/>
<path d="M133.524 25.4716H135.581V20.8239H135.666C135.99 21.4602 136.666 22.3523 138.166 22.3523C140.223 22.3523 141.763 20.7216 141.763 17.8466C141.763 14.9375 140.177 13.358 138.16 13.358C136.621 13.358 135.979 14.2841 135.666 14.9148H135.547V13.4716H133.524V25.4716ZM135.541 17.8352C135.541 16.142 136.268 15.0455 137.592 15.0455C138.962 15.0455 139.666 16.2102 139.666 17.8352C139.666 19.4716 138.95 20.6648 137.592 20.6648C136.28 20.6648 135.541 19.5284 135.541 17.8352Z" fill="#47343A"/>
<defs>
<linearGradient id="paint0_linear_5777_1226" x1="21.7011" y1="27.767" x2="21.7011" y2="4" gradientUnits="userSpaceOnUse">
<stop stop-color="#6400E6"/>
<stop offset="0.00798" stop-color="#6501E6"/>
<stop offset="0.21029" stop-color="#8A25EF"/>
<stop offset="0.41265" stop-color="#A741F6"/>
<stop offset="0.61287" stop-color="#BC55FB"/>
<stop offset="0.80988" stop-color="#C861FE"/>
<stop offset="1" stop-color="#CD66FF"/>
</linearGradient>
<linearGradient id="paint1_linear_5777_1226" x1="5.80563" y1="21.9653" x2="17.9639" y2="9.80539" gradientUnits="userSpaceOnUse">
<stop stop-color="#CD66FF"/>
<stop offset="1" stop-color="#FFB3FF"/>
</linearGradient>
</defs>
</svg>
