<svg width="20" height="20" viewBox="0 0 20 20" fill="none" xmlns="http://www.w3.org/2000/svg">
<path fill-rule="evenodd" clip-rule="evenodd" d="M10.0001 3.125C8.85272 3.125 7.78733 3.46786 6.89846 4.05657C6.61068 4.24717 6.22287 4.1684 6.03227 3.88061C5.84167 3.59283 5.92044 3.20502 6.20823 3.01442C7.29544 2.29433 8.59974 1.875 10.0001 1.875C13.797 1.875 16.8751 4.95304 16.8751 8.75C16.8751 11.2627 16.3967 13.6652 15.525 15.8702C15.3981 16.1912 15.035 16.3485 14.714 16.2216C14.393 16.0947 14.2356 15.7316 14.3625 15.4106C15.1773 13.3497 15.6251 11.1029 15.6251 8.75C15.6251 5.6434 13.1067 3.125 10.0001 3.125ZM5.1307 4.78219C5.41848 4.97279 5.49726 5.3606 5.30665 5.64838C4.71794 6.53724 4.37508 7.60263 4.37508 8.75C4.37508 10.0943 3.98888 11.3504 3.32059 12.4108C3.13656 12.7028 2.75064 12.7904 2.45861 12.6064C2.16658 12.4223 2.07903 12.0364 2.26307 11.7444C2.8092 10.8777 3.12508 9.8518 3.12508 8.75C3.12508 7.34966 3.54442 6.04536 4.2645 4.95814C4.45511 4.67036 4.84291 4.59158 5.1307 4.78219ZM10.0001 6.25C8.61937 6.25 7.50008 7.36929 7.50008 8.75C7.50008 11.3331 6.52011 13.6888 4.91228 15.463C4.68049 15.7188 4.28524 15.7382 4.02947 15.5064C3.77369 15.2747 3.75424 14.8794 3.98603 14.6236C5.39358 13.0704 6.25008 11.011 6.25008 8.75C6.25008 6.67893 7.92901 5 10.0001 5C12.0712 5 13.7501 6.67893 13.7501 8.75C13.7501 9.20603 13.7315 9.65806 13.6946 10.1053C13.6662 10.4493 13.3643 10.7052 13.0203 10.6767C12.6763 10.6483 12.4204 10.3464 12.4488 10.0024C12.4829 9.58983 12.5001 9.17215 12.5001 8.75C12.5001 7.36929 11.3808 6.25 10.0001 6.25ZM10.0003 8.125C10.3455 8.125 10.6253 8.40482 10.6253 8.75C10.6253 12.0068 9.43834 14.9879 7.47414 17.282C7.24964 17.5442 6.8551 17.5748 6.5929 17.3503C6.3307 17.1258 6.30013 16.7312 6.52463 16.469C8.30225 14.3929 9.37534 11.6976 9.37534 8.75C9.37534 8.40482 9.65517 8.125 10.0003 8.125ZM12.699 12.4442C13.031 12.5389 13.2233 12.8848 13.1286 13.2167C12.6537 14.8813 11.9202 16.4366 10.9745 17.8362C10.7813 18.1223 10.3928 18.1975 10.1068 18.0042C9.82076 17.811 9.74554 17.4225 9.93878 17.1365C10.8118 15.8443 11.4885 14.4092 11.9265 12.8738C12.0212 12.5418 12.3671 12.3495 12.699 12.4442Z" fill="#47343A"/>
</svg>
