<svg width="23" height="18" viewBox="0 0 23 18" fill="none" xmlns="http://www.w3.org/2000/svg">
<path d="M14.8929 6.42V5.7C14.8929 5.5 14.6229 5.21 14.4129 5.2L6.66292 5.24C6.41292 5.26 6.19292 5.47 6.16292 5.72C6.24292 7.19 6.09292 8.74 6.18292 10.2C6.29292 11.8 7.74292 13.26 9.35292 13.36C10.0529 13.4 11.5429 13.42 12.2029 13.27C13.1129 13.07 13.9129 12.48 14.3929 11.69C14.5429 11.44 14.6629 11.18 14.7629 10.91C14.7929 10.89 15.2329 11 15.3229 11C16.4129 11.07 17.4329 10.36 17.7229 9.31C18.2029 7.56 16.6429 5.97 14.8929 6.42ZM14.9229 9.69V7.67C15.5029 7.3 16.2729 7.58 16.5429 8.2C16.9829 9.23 15.9029 10.2 14.9229 9.69Z" fill="#47343A"/>
<path d="M0.00292969 10.06V7.92C0.67293 7.92 1.15293 7.72 1.43293 7.35C1.70293 6.99 1.85293 6.57 1.90293 6.09C1.94293 5.63 1.95293 5.12 1.95293 4.57C1.95293 3.58 2.00293 2.86 2.10293 2.39C2.19293 1.94 2.38293 1.57 2.66293 1.28C2.94293 0.989999 3.30293 0.779999 3.76293 0.639999C4.22293 0.499999 4.84293 0.439999 5.62293 0.439999H6.09293V2.57C5.30293 2.57 4.80293 2.65 4.59293 2.81C4.38293 2.97 4.27293 3.32 4.27293 3.86C4.27293 5.61 4.16293 6.8 3.94293 7.42C3.72293 8.04 3.27293 8.57 2.59293 9.01C3.14293 9.31 3.55293 9.75 3.84293 10.34C4.12293 10.93 4.26293 12.2 4.26293 14.14C4.26293 14.56 4.32293 14.86 4.45293 15.02C4.57293 15.19 4.74293 15.3 4.95293 15.35C5.16293 15.4 5.54293 15.43 6.08293 15.43V17.57H5.62293C4.59293 17.57 3.81293 17.44 3.29293 17.17C2.76293 16.91 2.41293 16.52 2.23293 16.01C2.05293 15.51 1.95293 14.65 1.95293 13.42C1.95293 12.49 1.90293 11.81 1.80293 11.38C1.71293 10.97 1.52293 10.66 1.24293 10.44C0.96293 10.23 0.55293 10.1 0.00292969 10.07V10.06Z" fill="#47343A"/>
<path d="M21.153 10.43C20.873 10.64 20.683 10.96 20.593 11.37C20.493 11.8 20.443 12.48 20.443 13.41C20.443 14.64 20.353 15.5 20.163 16C19.983 16.51 19.633 16.9 19.103 17.16C18.573 17.43 17.793 17.56 16.773 17.56H16.313V15.42C16.863 15.42 17.233 15.39 17.443 15.34C17.653 15.29 17.823 15.18 17.943 15.01C18.063 14.84 18.133 14.55 18.133 14.13C18.133 12.19 18.273 10.92 18.553 10.33C18.843 9.74 19.253 9.3 19.803 9C19.123 8.57 18.673 8.04 18.453 7.41C18.233 6.79 18.123 5.61 18.123 3.85C18.123 3.31 18.013 2.96 17.803 2.8C17.593 2.64 17.093 2.56 16.303 2.56V0.43H16.773C17.553 0.43 18.173 0.5 18.633 0.63C19.083 0.77 19.453 0.99 19.733 1.27C20.013 1.57 20.203 1.94 20.293 2.38C20.393 2.85 20.443 3.58 20.443 4.56C20.443 5.11 20.463 5.62 20.493 6.08C20.543 6.56 20.693 6.98 20.963 7.34C21.243 7.71 21.713 7.9 22.393 7.91V10.05C21.843 10.08 21.433 10.2 21.153 10.42V10.43Z" fill="#47343A"/>
</svg>
