<svg width="20" height="20" viewBox="0 0 20 20" fill="none" xmlns="http://www.w3.org/2000/svg">
<path fill-rule="evenodd" clip-rule="evenodd" d="M16.5847 3.41529C15.3643 2.1949 13.3857 2.1949 12.1653 3.41529L8.41529 7.16529C7.1949 8.38568 7.1949 10.3643 8.41529 11.5847C8.67435 11.8438 8.96648 12.0471 9.27752 12.1957C9.58899 12.3445 9.72086 12.7176 9.57207 13.0291C9.42328 13.3405 9.05018 13.4724 8.73871 13.3236C8.30141 13.1147 7.89219 12.8294 7.53141 12.4686C5.82286 10.76 5.82286 7.98995 7.53141 6.28141L11.2814 2.53141C12.99 0.822864 15.76 0.822864 17.4686 2.53141C19.1771 4.23995 19.1771 7.01005 17.4686 8.71859L16.0044 10.1827C15.7604 10.4268 15.3646 10.4268 15.1206 10.1827C14.8765 9.93866 14.8765 9.54293 15.1206 9.29885L16.5847 7.83471C17.8051 6.61432 17.8051 4.63568 16.5847 3.41529ZM10.4279 6.97094C10.5767 6.65948 10.9498 6.52761 11.2613 6.67639C11.6986 6.8853 12.1078 7.17062 12.4686 7.53141C14.1771 9.23995 14.1771 12.01 12.4686 13.7186L8.71859 17.4686C7.01005 19.1771 4.23995 19.1771 2.53141 17.4686C0.822864 15.76 0.822864 12.99 2.53141 11.2814L3.99555 9.81727C4.23963 9.57319 4.63536 9.57319 4.87943 9.81727C5.12351 10.0613 5.12351 10.4571 4.87943 10.7011L3.41529 12.1653C2.1949 13.3857 2.1949 15.3643 3.41529 16.5847C4.63568 17.8051 6.61432 17.8051 7.83471 16.5847L11.5847 12.8347C12.8051 11.6143 12.8051 9.63568 11.5847 8.41529C11.3257 8.15623 11.0335 7.95289 10.7225 7.80431C10.411 7.65552 10.2791 7.28241 10.4279 6.97094Z" fill="#47343A"/>
</svg>
