<?xml version="1.0" encoding="UTF-8"?>
<svg id="Layer_2" data-name="Layer 2" xmlns="http://www.w3.org/2000/svg" viewBox="0 0 96.51 17.13">
  <defs>
    <style>
      .cls-1 {
        fill: #fff;
      }
    </style>
  </defs>
  <g id="Layer_1-2" data-name="Layer 1">
    <g>
      <g>
        <path class="cls-1" d="M14.89,5.99v-.72c0-.2-.27-.49-.48-.5l-7.75.04c-.25.02-.47.23-.5.48.08,1.47-.07,3.02.02,4.48.11,1.6,1.56,3.06,3.17,3.16.7.04,2.19.06,2.85-.09.91-.2,1.71-.79,2.19-1.58.15-.25.27-.51.37-.78.03-.02.47.09.56.09,1.09.07,2.11-.64,2.4-1.69.48-1.75-1.08-3.34-2.83-2.89ZM14.92,9.26v-2.02c.58-.37,1.35-.09,1.62.53.44,1.03-.64,2-1.62,1.49Z"/>
        <path class="cls-1" d="M0,9.63v-2.14c.67,0,1.15-.2,1.43-.57.27-.36.42-.78.47-1.26.04-.46.05-.97.05-1.52,0-.99.05-1.71.15-2.18.09-.45.28-.82.56-1.11.28-.29.64-.5,1.1-.64.46-.14,1.08-.2,1.86-.2h.47v2.13c-.79,0-1.29.08-1.5.24-.21.16-.32.51-.32,1.05,0,1.75-.11,2.94-.33,3.56-.22.62-.67,1.15-1.35,1.59.55.3.96.74,1.25,1.33.28.59.42,1.86.42,3.8,0,.42.06.72.19.88.12.17.29.28.5.33.21.05.59.08,1.13.08v2.14h-.46c-1.03,0-1.81-.13-2.33-.4-.53-.26-.88-.65-1.06-1.16-.18-.5-.28-1.36-.28-2.59,0-.93-.05-1.61-.15-2.04-.09-.41-.28-.72-.56-.94-.28-.21-.69-.34-1.24-.37Z"/>
        <path class="cls-1" d="M21.15,10c-.28.21-.47.53-.56.94-.1.43-.15,1.11-.15,2.04,0,1.23-.09,2.09-.28,2.59-.18.51-.53.9-1.06,1.16-.53.27-1.31.4-2.33.4h-.46v-2.14c.55,0,.92-.03,1.13-.08.21-.05.38-.16.5-.33.12-.17.19-.46.19-.88,0-1.94.14-3.21.42-3.8.29-.59.7-1.03,1.25-1.33-.68-.43-1.13-.96-1.35-1.59-.22-.62-.33-1.8-.33-3.56,0-.54-.11-.89-.32-1.05-.21-.16-.71-.24-1.5-.24V0h.47c.78,0,1.4.07,1.86.2.45.14.82.36,1.1.64.28.3.47.67.56,1.11.1.47.15,1.2.15,2.18,0,.55.02,1.06.05,1.52.05.48.2.9.47,1.26.28.37.75.56,1.43.57v2.14c-.55.03-.96.15-1.24.37Z"/>
      </g>
      <g>
        <path class="cls-1" d="M27,7.69c.36-1.98,1.99-4.01,4.08-3.9,1.72.08,2.76,1.71,2.57,3.1-.09.71-1.24,1.25-1.6.55-.5-.99-1.22-1.47-1.99-.09-.44.82-.34,2.09.08,2.73.55.88,1.9.88,2.45,0,.16-.24.31-.45.6-.53.64-.14,1.14.41.96,1.05-.25.88-.78,1.54-1.62,1.94-2.15,1-4.91-.08-5.44-2.4-.19-.86-.22-1.68-.08-2.45Z"/>
        <path class="cls-1" d="M42.7,6.25c.89,2.52-.24,6.8-3.59,6.8-1.38.02-2.54-.85-3.2-1.94-.96-1.51-.92-3.53-.14-5.06,1.4-2.81,5.71-3.04,6.93.2ZM40.61,8.19c-.19-2.68-2.48-2.27-2.79-.03-.6,3.26,3.01,3.14,2.79.03Z"/>
        <path class="cls-1" d="M49.32,2.08c.03-.3.2-.61.36-.88.36-.49.94-.69,1.49-.52.55.17.92.63.96,1.24.02.24-.02.45-.03.69-.11,3.04-.39,7.23-.08,9.88.06.49-.08.91-.47,1.13-.41.2-.91.11-1.24-.25-.31-.34-.49-.77-.63-1.21-.06-.19-.11-.38-.17-.58-2.38,2.04-5.47.31-5.47-2.59.03-2.62,2.63-3.9,4.95-3.25.06-1.24.14-2.46.33-3.67ZM46.59,9.62c.3,1.58,2.52.72,2.65-.24.03-.24-.05-.5-.25-.83-.11-.16-.24-.3-.41-.36-.44-.17-.91-.22-1.32-.06-.61.22-.78.91-.67,1.49Z"/>
        <path class="cls-1" d="M58.16,10.02c.42-.16.74-.16,1,.11.28.25.38.67.17,1.03-.45.75-1.16,1.11-1.96,1.36-1.13.33-2.26.19-3.09-.67-1.65-1.71-1.8-4.77-.34-6.62,1.36-1.83,4.61-1.68,5.39.55.41,1.13.16,2.48-.74,3.28-.63.58-1.51.78-2.29.83.44.8,1.24.34,1.85.13ZM57.78,6.48c-.3-.55-.66-.61-1.11-.19-.25.25-.64.88-.77,1.41-.13.52.05.85.47.85,1.3.02,1.96-1.05,1.41-2.07Z"/>
        <path class="cls-1" d="M63.52,12.64c0,.19,0,.38-.03.55-.09.44-.45.78-.89.86-.41.06-.86-.14-1.08-.53-.13-.19-.19-.41-.27-.63-1.02-3.21-1.21-7.73-.39-10.94.08-.28.16-.56.28-.82.17-.27.38-.53.61-.72.35-.25.74-.27,1.11-.03.38.22.52.56.52.99-.03,1.32-.06,2.63-.06,3.95-.02.05,0,.09.02.17.3-.06.61-.14.91-.19,1.07-.16,2.01.08,2.87.74.5.41.8.94.85,1.61.14,1.41-.42,2.52-1.58,3.36-.82.58-1.76.93-2.85,1,0,.24.02.44,0,.63ZM64.88,8.57c.77-.69-.27-1.82-1.33-1.22-.14.08-.24.19-.2.36.03.49.05.97.09,1.47.55-.09,1.03-.27,1.44-.61Z"/>
        <path class="cls-1" d="M73.87,4.8c.31-.03.64,0,.96.08.44.11.75.52.77.97.05.5-.17.85-.64,1.07-.31.14-.61.24-.93.38-.42.22-.86.42-1.27.71-.74.55-1.1,1.32-.99,2.29.03.38.08.74.09,1.14.05.74-.34,1.3-.94,1.44-.56.13-1.13-.28-1.32-.99-.6-2.24-.64-4.37-.64-6.44,0-.28.03-.55.09-.82.11-.52.47-.88.93-.89.41-.03.82.27.97.78.09.28.16.63.22.94.03.11.06.24.09.42.82-.71,1.69-.99,2.6-1.08Z"/>
        <path class="cls-1" d="M81.85,10.02c.42-.16.74-.16,1,.11.28.25.38.67.17,1.03-.45.75-1.16,1.11-1.96,1.36-1.13.33-2.26.19-3.09-.67-1.65-1.71-1.8-4.77-.35-6.62,1.36-1.83,4.61-1.68,5.39.55.41,1.13.16,2.48-.74,3.28-.63.58-1.51.78-2.29.83.44.8,1.24.34,1.85.13ZM81.47,6.48c-.3-.55-.66-.61-1.11-.19-.25.25-.64.88-.77,1.41-.13.52.05.85.47.85,1.3.02,1.96-1.05,1.41-2.07Z"/>
        <path class="cls-1" d="M89.44,12.06c-1.11,1.33-2.73,1.38-3.92.11-.52-.55-.85-1.19-1.02-1.9-.28-1.29-.28-2.56.05-3.83.14-.55.52-1.29.99-1.43.75-.31,1.4.19,1.36.85-.03.69-.03,1.4-.02,2.05.08,2.79.74,3.09,1.82.63.06-.14.09-.35.16-.52.19-.47.52-.77,1.05-.82.55-.03.97.2,1.22.64,1.54,3.72,3.36,2.82,2.82-.14-.2-1.1-.67-2.21-1.27-3.64-.2-.36-.13-.74.17-.99.31-.27.75-.3,1.11-.02.24.16.45.39.63.63,1.46,2.29,2.71,5.22,1.29,7.56-.19.38-.52.74-.86,1.03-.89.75-2.04.85-3.12.36-.6-.3-1.03-.71-1.44-1.21-.11-.11-.19-.25-.35-.39-.25.35-.44.69-.67,1Z"/>
      </g>
    </g>
  </g>
</svg>