<svg width="21" height="20" viewBox="0 0 21 20" fill="none" xmlns="http://www.w3.org/2000/svg">
<rect width="21" height="20" fill="#E5E5E5"/>
<g clip-path="url(#clip0_5684_2)">
<rect width="1440" height="1024" transform="translate(-661 -607)" fill="white"/>
<rect x="-340.5" y="-421.5" width="599" height="806" rx="7.5" fill="white"/>
<rect x="-340.5" y="-421.5" width="599" height="806" rx="7.5" stroke="#E5E7EB"/>
<g filter="url(#filter0_d_5684_2)">
<rect x="-309" y="-14" width="536" height="48" rx="8" fill="#47343A"/>
<rect x="-308.5" y="-13.5" width="535" height="47" rx="7.5" stroke="#47343A"/>
<path d="M3.5 13.5L3.5 14.375C3.5 15.8247 4.67525 17 6.125 17L14.875 17C16.3247 17 17.5 15.8247 17.5 14.375L17.5 13.5M14 6.5L10.5 3M10.5 3L7 6.5M10.5 3L10.5 13.5" stroke="#F9FAFB" stroke-width="1.5" stroke-linecap="round" stroke-linejoin="round"/>
</g>
</g>
<defs>
<filter id="filter0_d_5684_2" x="-315" y="-18" width="548" height="60" filterUnits="userSpaceOnUse" color-interpolation-filters="sRGB">
<feFlood flood-opacity="0" result="BackgroundImageFix"/>
<feColorMatrix in="SourceAlpha" type="matrix" values="0 0 0 0 0 0 0 0 0 0 0 0 0 0 0 0 0 0 127 0" result="hardAlpha"/>
<feOffset dy="2"/>
<feGaussianBlur stdDeviation="3"/>
<feColorMatrix type="matrix" values="0 0 0 0 0.0627451 0 0 0 0 0.0941176 0 0 0 0 0.156863 0 0 0 0.06 0"/>
<feBlend mode="normal" in2="BackgroundImageFix" result="effect1_dropShadow_5684_2"/>
<feBlend mode="normal" in="SourceGraphic" in2="effect1_dropShadow_5684_2" result="shape"/>
</filter>
<clipPath id="clip0_5684_2">
<rect width="1440" height="1024" fill="white" transform="translate(-661 -607)"/>
</clipPath>
</defs>
</svg>
