<svg width="20" height="20" viewBox="0 0 20 20" fill="none" xmlns="http://www.w3.org/2000/svg">
<path d="M9.03834 4.10997C9.20914 3.69932 9.79086 3.69932 9.96166 4.10996L11.3665 7.48759C11.4385 7.6607 11.6013 7.77899 11.7882 7.79397L15.4346 8.08631C15.878 8.12185 16.0577 8.6751 15.7199 8.96444L12.9418 11.3443C12.7994 11.4662 12.7372 11.6576 12.7807 11.84L13.6295 15.3983C13.7327 15.8309 13.262 16.1728 12.8825 15.941L9.76063 14.0342C9.60062 13.9365 9.39938 13.9365 9.23937 14.0342L6.11752 15.941C5.73797 16.1728 5.26735 15.8309 5.37054 15.3983L6.21932 11.84C6.26283 11.6576 6.20064 11.4662 6.05825 11.3443L3.28005 8.96444C2.94229 8.6751 3.12205 8.12185 3.56538 8.08631L7.2118 7.79397C7.3987 7.77899 7.5615 7.6607 7.63351 7.48759L9.03834 4.10997Z" stroke="#1F2937" stroke-width="1.5"/>
</svg>
