<svg width="20" height="20" viewBox="0 0 20 20" fill="none" xmlns="http://www.w3.org/2000/svg">
<path d="M14.1888 3.18213C14.711 3.50358 15.2043 3.89058 15.6569 4.34315C16.1094 4.79571 16.4964 5.289 16.8179 5.81122M14.1888 3.18213L11.1232 6.86078M14.1888 3.18213C11.6281 1.60596 8.37188 1.60596 5.81122 3.18213M16.8179 5.81122L13.1392 8.87677M16.8179 5.81122C18.394 8.37188 18.394 11.6281 16.8179 14.1888M13.1392 8.87677C12.9784 8.42636 12.7177 8.00363 12.357 7.64298C11.9964 7.28233 11.5736 7.0216 11.1232 6.86078M13.1392 8.87677C13.398 9.60169 13.398 10.3983 13.1392 11.1232M11.1232 6.86078C10.3983 6.60196 9.60169 6.60196 8.87677 6.86078M13.1392 11.1232C12.9784 11.5736 12.7177 11.9964 12.357 12.357C11.9964 12.7177 11.5736 12.9784 11.1232 13.1392M13.1392 11.1232L16.8179 14.1888M16.8179 14.1888C16.4964 14.711 16.1094 15.2043 15.6569 15.6569C15.2043 16.1094 14.711 16.4964 14.1888 16.8179M14.1888 16.8179L11.1232 13.1392M14.1888 16.8179C11.6281 18.394 8.37188 18.394 5.81122 16.8179M11.1232 13.1392C10.3983 13.398 9.60169 13.398 8.87677 13.1392M8.87677 13.1392C8.42636 12.9784 8.00363 12.7177 7.64298 12.357C7.28233 11.9964 7.0216 11.5736 6.86078 11.1232M8.87677 13.1392L5.81122 16.8179M5.81122 16.8179C5.289 16.4964 4.79571 16.1094 4.34315 15.6569C3.89058 15.2043 3.50358 14.711 3.18213 14.1888M3.18213 14.1888L6.86078 11.1232M3.18213 14.1888C1.60596 11.6281 1.60596 8.37188 3.18213 5.81122M6.86078 11.1232C6.60196 10.3983 6.60196 9.60169 6.86078 8.87677M6.86078 8.87677C7.0216 8.42636 7.28233 8.00363 7.64298 7.64298C8.00363 7.28233 8.42636 7.0216 8.87677 6.86078M6.86078 8.87677L3.18213 5.81122M8.87677 6.86078L5.81122 3.18213M5.81122 3.18213C5.289 3.50358 4.79571 3.89058 4.34315 4.34315C3.89058 4.79571 3.50358 5.289 3.18213 5.81122" stroke="#47343A" stroke-width="1.5" stroke-linecap="round" stroke-linejoin="round"/>
</svg>
